<?xml version="1.0" encoding="UTF-8"?>
<svg version="1.1" xmlns="http://www.w3.org/2000/svg" width="512" height="512">
<path d="M0 0 C0.87978516 0.01135986 1.75957031 0.02271973 2.66601562 0.03442383 C24.96037018 0.68528035 45.13391604 10.92282563 61.625 25.5 C62.26050781 26.05171875 62.89601563 26.6034375 63.55078125 27.171875 C80.56447285 42.97309663 87.26820425 66.43443144 94.0625 87.8125 C94.80817818 90.13101371 95.55484755 92.44920887 96.30249023 94.76708984 C97.76078034 99.29381931 99.21296903 103.82242458 100.65917969 108.35302734 C102.33191094 113.59102028 104.02293572 118.82276707 105.7265625 124.05078125 C106.54734469 126.57536849 107.36742013 129.10018445 108.1875 131.625 C108.55093506 132.74173096 108.91437012 133.85846191 109.28881836 135.0090332 C109.76653687 136.49342896 109.76653687 136.49342896 110.25390625 138.0078125 C110.52275635 138.83941895 110.79160645 139.67102539 111.06860352 140.52783203 C111.625 142.5 111.625 142.5 111.625 144.5 C126.145 144.5 140.665 144.5 155.625 144.5 C155.60143433 139.43603882 155.60143433 139.43603882 155.57739258 134.26977539 C155.52763095 123.10194647 155.49437167 111.93410882 155.46956348 100.76619816 C155.4541246 93.99666232 155.43309248 87.22723186 155.39868164 80.45776367 C155.36547475 73.92200048 155.34813451 67.38630554 155.34036827 60.85046196 C155.33483529 58.3598604 155.32403076 55.86926467 155.30780983 53.37870979 C155.2859585 49.88393456 155.28303637 46.38960821 155.28442383 42.89477539 C155.273638 41.87049942 155.26285217 40.84622345 155.2517395 39.79090881 C155.27954705 33.29636985 155.52702558 25.96370303 160.07703876 20.87654209 C164.24335243 17.31538458 166.78290116 16.37521304 172.14007568 16.35282898 C173.31213562 16.34567368 174.48419556 16.33851837 175.69177246 16.33114624 C176.98425903 16.32845734 178.27674561 16.32576843 179.60839844 16.32299805 C180.9782529 16.31673407 182.34810566 16.31008733 183.71795654 16.30308533 C187.44538891 16.28566814 191.17280843 16.27512135 194.90027142 16.2668798 C197.22905131 16.26173052 199.55782722 16.25565472 201.88660431 16.24936867 C209.17269684 16.23031346 216.45877922 16.21608376 223.74489188 16.2077567 C232.15548599 16.19798594 240.56581679 16.17167223 248.97631812 16.13125581 C255.47661301 16.10109099 261.97683245 16.08628744 268.47719598 16.08297569 C272.35968973 16.08062535 276.24190231 16.0716677 280.12432098 16.04651451 C283.7785972 16.02322246 287.43240736 16.01900478 291.08673859 16.02927589 C293.06323741 16.03000682 295.03971262 16.01092287 297.01611328 15.99121094 C307.82322207 16.05462689 307.82322207 16.05462689 312.625 20.5 C317.37367708 25.72117735 317.15733704 30.4543063 317.015625 37.1484375 C317.00996521 38.16096588 317.00430542 39.17349426 316.99847412 40.21670532 C316.97616254 43.43662677 316.92597472 46.6554174 316.875 49.875 C316.85492831 52.06378596 316.83667871 54.25258944 316.8203125 56.44140625 C316.77631505 61.79465378 316.70945518 67.14724608 316.625 72.5 C317.28819244 72.49111755 317.95138489 72.48223511 318.63467407 72.4730835 C325.54526134 72.38450044 332.45568696 72.32421985 339.36669922 72.28027344 C341.94489088 72.26017437 344.52303704 72.23289059 347.10107422 72.19824219 C350.80968461 72.14965153 354.51769156 72.12701342 358.2265625 72.109375 C359.37677887 72.08872986 360.52699524 72.06808472 361.71206665 72.04681396 C367.81571744 72.04510756 371.98121379 72.08982307 376.625 76.5 C381.39793148 81.30366702 381.07974642 86.22412239 381.07818604 92.63265991 C381.05776442 93.9712591 381.03690052 95.30985161 381.015625 96.6484375 C381.0081563 98.02990904 381.00246634 99.41139124 380.99847412 100.7928772 C380.98326689 104.41316438 380.94402917 108.0328005 380.8996582 111.65283203 C380.85859831 115.35310053 380.84044037 119.05347516 380.8203125 122.75390625 C380.77752867 130.00289964 380.70933879 137.25135828 380.625 144.5 C382.37804443 144.46072388 382.37804443 144.46072388 384.16650391 144.4206543 C388.56848441 144.32906663 392.97038374 144.27236272 397.37304688 144.2253418 C399.26609533 144.20044172 401.15905016 144.16650851 403.05175781 144.12280273 C419.94177301 143.74300081 433.52594381 145.6859778 446.625 157.5 C456.09576836 167.26267561 460.77879631 178.06308781 460.9375 191.5 C460.96650391 192.28761719 460.99550781 193.07523438 461.02539062 193.88671875 C461.16232112 206.96884799 454.38889423 218.73072237 448.875 230.25 C448.18951598 231.69763829 447.50461768 233.14555409 446.8203125 234.59375 C443.38840296 241.83637154 439.88854748 249.04424286 436.31640625 256.21875 C435.99452332 256.86704773 435.67264038 257.51534546 435.34100342 258.18328857 C429.838974 269.16682148 423.08029197 277.7370191 414.625 286.5 C413.95597656 287.2321875 413.28695313 287.964375 412.59765625 288.71875 C401.21558926 300.84678755 385.31470187 309.47369958 369.6875 314.8125 C369.02145752 315.04283936 368.35541504 315.27317871 367.66918945 315.51049805 C365.33825056 316.25909068 362.99425842 316.88213418 360.625 317.5 C359.67796204 317.75420715 358.73092407 318.00841431 357.75518799 318.27032471 C343.74114505 321.45363639 329.44568515 320.95845955 315.15639472 320.93590808 C312.09047074 320.93278184 309.02459134 320.93894643 305.95867378 320.94494683 C298.71240046 320.9589159 291.46624522 320.95749547 284.2199707 320.94604492 C276.800176 320.93457763 269.38074336 320.94863339 261.96099633 320.9754414 C255.53917299 320.99775583 249.11746198 321.00420053 242.69560272 320.99836498 C238.88279744 320.99503071 235.07022384 320.99716995 231.25745201 321.01461601 C197.49075406 321.15431483 168.28790225 315.27662724 141.625 293.5 C140.42423828 292.52933594 140.42423828 292.52933594 139.19921875 291.5390625 C119.94133471 275.24137135 109.66171738 252.78541831 102.88677979 229.06698608 C101.62786741 224.67068212 100.32580789 220.28709751 99.02734375 215.90234375 C98.752854 214.97349869 98.47836426 214.04465363 98.19555664 213.08766174 C95.02652311 202.40780574 91.65416979 191.79436698 88.25 181.1875 C87.92671722 180.1796344 87.60343445 179.1717688 87.27035522 178.13336182 C77.90942248 148.98809211 68.32635837 119.91343745 58.72775269 90.84570312 C57.72889726 87.8152197 56.73554277 84.78300758 55.74438477 81.75 C55.2138021 80.13538457 54.68313104 78.52079818 54.15234375 76.90625 C53.81793777 75.87449646 53.81793777 75.87449646 53.47677612 74.82189941 C48.33970609 59.26546738 38.32223506 47.6426821 23.828125 40.03125 C14.95281812 35.81425336 6.5059412 34.17258646 -3.1953125 33.46484375 C-9.47769892 32.8616436 -13.34908977 30.63253708 -17.75 26 C-20.14803575 20.83499991 -20.12881535 16.0997712 -19.375 10.5 C-15.35686043 1.84554554 -8.86544045 -0.19446225 0 0 Z M188.625 48.5 C188.625 80.18 188.625 111.86 188.625 144.5 C219.975 144.5 251.325 144.5 283.625 144.5 C283.625 112.82 283.625 81.14 283.625 48.5 C252.275 48.5 220.925 48.5 188.625 48.5 Z M316.625 104.5 C316.625 117.7 316.625 130.9 316.625 144.5 C326.855 144.5 337.085 144.5 347.625 144.5 C347.625 131.3 347.625 118.1 347.625 104.5 C337.395 104.5 327.165 104.5 316.625 104.5 Z M122.625 176.5 C123.25876303 179.05144417 123.89357213 181.60262054 124.52897644 184.15365601 C124.70688453 184.87034926 124.88479262 185.58704252 125.06809187 186.32545376 C126.46119999 191.91333588 127.97373575 197.45563353 129.61328125 202.9765625 C130.01271187 204.32444351 130.01271187 204.32444351 130.42021179 205.69955444 C130.97685186 207.57018626 131.53559036 209.44019495 132.09643555 211.30957031 C132.65768995 213.18834703 133.21302245 215.06890289 133.76245117 216.95117188 C138.38104901 232.77381551 143.34484388 247.06922686 154.625 259.5 C155.36363281 260.33144531 156.10226563 261.16289062 156.86328125 262.01953125 C173.31293557 279.54608601 195.91641593 287.56782391 219.625 288.5 C227.84465825 288.68979062 236.06769467 288.66536478 244.2890625 288.66796875 C246.69119282 288.6711892 249.09332295 288.67455384 251.49545288 288.67805481 C256.51666722 288.68401908 261.53786441 288.68589753 266.55908203 288.68530273 C272.94323568 288.68520134 279.32727756 288.69884272 285.7114048 288.71607494 C290.67044565 288.72728066 295.62946022 288.72921932 300.58851242 288.72869301 C302.93965413 288.72986067 305.29079679 288.73421279 307.64192581 288.74202538 C333.17732118 289.23919648 333.17732118 289.23919648 357.9375 283.875 C358.67057373 283.61412598 359.40364746 283.35325195 360.15893555 283.08447266 C386.36768636 273.35264101 400.88139847 253.77387587 412.58398438 229.41552734 C413.61779262 227.26499283 414.65986105 225.1186168 415.703125 222.97265625 C425.07349183 206.38583928 425.07349183 206.38583928 427.625 188.5 C426.13155331 184.26420091 424.08675069 181.49000375 420.25 179.125 C413.31776499 176.01744637 406.43445838 176.36003483 398.96987915 176.37974548 C397.19809471 176.37846385 397.19809471 176.37846385 395.39051664 176.37715632 C392.12040467 176.37579569 388.85033249 176.37891456 385.58022523 176.38393438 C382.05064538 176.38825766 378.52106735 176.38679112 374.9914856 176.3860321 C368.87905057 176.38550806 362.76662622 176.38864239 356.65419388 176.39426994 C347.81667137 176.40240111 338.97915403 176.40500182 330.14162819 176.40625793 C315.80291196 176.40844591 301.46420142 176.4150991 287.12548828 176.42456055 C273.1977542 176.43374124 259.27002166 176.44081886 245.34228516 176.44506836 C244.48360677 176.44533108 243.62492839 176.44559381 242.74022944 176.44586449 C238.43244074 176.44716954 234.12465202 176.44843325 229.8168633 176.44967639 C194.08623814 176.46004108 158.3556196 176.47765249 122.625 176.5 Z " fill="#9E0788" transform="translate(35.375,39.5)"/>
<path d="M0 0 C10.91477233 7.24388477 18.66520409 16.12687108 22.56640625 28.7578125 C25.3583936 42.68804725 24.22795103 56.72955519 16.7265625 68.99609375 C8.81044454 79.86461002 -1.57303721 87.34605856 -14.69921875 90.421875 C-29.44611896 91.87792247 -42.37455933 90.3873578 -54.453125 81.265625 C-65.52679386 72.17558725 -71.69129872 61.38312299 -73.51171875 47.109375 C-74.39679289 34.05453148 -71.04925475 21.6697375 -62.67578125 11.5859375 C-46.75685423 -5.84308536 -21.22138409 -12.40729258 0 0 Z M-38.01171875 34.296875 C-40.10602773 38.17522497 -41.1983065 40.98882221 -40.29296875 45.40234375 C-38.61991091 50.71031892 -36.21732509 53.24958757 -31.69921875 56.421875 C-27.98461075 58.279179 -23.75328757 57.86470406 -19.69921875 57.421875 C-14.86063327 55.09218569 -12.02890806 52.26046048 -9.69921875 47.421875 C-8.90205485 42.42739911 -9.12013982 38.62457739 -11.32421875 34.046875 C-14.5669552 30.46279787 -17.16397771 27.82652259 -22.09765625 27.0390625 C-29.37182502 26.71139724 -33.37665835 28.53436748 -38.01171875 34.296875 Z " fill="#6601C3" transform="translate(232.69921875,381.578125)"/>
<path d="M0 0 C2.30941093 1.6820667 4.36083041 3.45269476 6.42578125 5.42578125 C7.12316406 6.08320313 7.82054687 6.740625 8.5390625 7.41796875 C18.71253435 17.87882681 21.7200572 29.67519743 21.74267578 43.71630859 C21.64147272 50.63934771 20.69423332 56.24414364 17.42578125 62.42578125 C16.77222656 63.71162109 16.77222656 63.71162109 16.10546875 65.0234375 C9.61953486 76.77254726 -0.10687336 84.71702538 -12.90234375 88.6953125 C-27.22863706 91.54533042 -41.57783149 90.28240822 -53.88671875 82.11328125 C-65.46345236 73.37053203 -72.68056092 63.04021591 -75.04296875 48.55078125 C-76.50141859 35.82249174 -74.07251478 23.20863004 -66.38671875 12.80078125 C-49.90836239 -7.04336705 -22.76897309 -13.92396988 0 0 Z M-39.88671875 33.30078125 C-41.98102773 37.17913122 -43.0733065 39.99272846 -42.16796875 44.40625 C-40.49491091 49.71422517 -38.09232509 52.25349382 -33.57421875 55.42578125 C-29.85961075 57.28308525 -25.62828757 56.86861031 -21.57421875 56.42578125 C-16.73563327 54.09609194 -13.90390806 51.26436673 -11.57421875 46.42578125 C-10.77705485 41.43130536 -10.99513982 37.62848364 -13.19921875 33.05078125 C-16.4419552 29.46670412 -19.03897771 26.83042884 -23.97265625 26.04296875 C-31.24682502 25.71530349 -35.25165835 27.53827373 -39.88671875 33.30078125 Z " fill="#5900D1" transform="translate(426.57421875,382.57421875)"/>
</svg>
